# xmcd
#
# Track frame offsets:
#	150
#	17840
#	34755
#	52508
#	64047
#	78547
#	94118
#	116183
#	130071
#	142583
#	163004
#	177775
#	193822
#	206074
#	220751
#	236745
#	250510
#	266003
#	280350
#	294845
#	308901
#	325181
#	338625
#
# Disc length: 4699 seconds
#
# Revision: 1
# Processed by: cddbd v1.5PL3 Copyright (c) Steve Scherf et al.
# Submitted via: audiograbber 1.83.01
#
DISCID=46125917
DTITLE=Magnificent 7 - Rust,Dust and Diamonds
DYEAR=1900
DGENRE=Country
TTITLE0=Beccy
TTITLE1=A Little Tropical
TTITLE2=Lets Dance
TTITLE3=Lucky Lips
TTITLE4=5 O'Clock World
TTITLE5=Buckle hits the floor
TTITLE6=Yes or No
TTITLE7=Lets all get drunk
TTITLE8=My mate Bruce
TTITLE9=Its only love
TTITLE10=Cool country
TTITLE11=Party til the cows come home
TTITLE12=Send my body
TTITLE13=Hey dwight yokem
TTITLE14=Cool 2 be a cowboy
TTITLE15=Hooked on music
TTITLE16=Shannon Lee
TTITLE17=Cowboy heaven
TTITLE18=Josephine
TTITLE19=Tubular bells (instumental)
TTITLE20=One way track
TTITLE21=I love a rainy night
TTITLE22=Folsom prison blues
EXTD=
EXTT0=
EXTT1=
EXTT2=
EXTT3=
EXTT4=
EXTT5=
EXTT6=
EXTT7=
EXTT8=
EXTT9=
EXTT10=
EXTT11=
EXTT12=
EXTT13=
EXTT14=
EXTT15=
EXTT16=
EXTT17=
EXTT18=
EXTT19=
EXTT20=
EXTT21=
EXTT22=
PLAYORDER=
